<svg xmlns="http://www.w3.org/2000/svg" version="1.1" xmlns:xlink="http://www.w3.org/1999/xlink" xmlns:svgjs="http://svgjs.dev/svgjs" width="1000" height="1000" viewBox="0 0 1000 1000"><rect width="1000" height="1000" fill="#ffffff"></rect><g transform="matrix(0.7,0,0,0.7,149.57576692255935,315.85496322189636)"><svg viewBox="0 0 396 209" data-background-color="#ffffff" preserveAspectRatio="xMidYMid meet" height="527" width="1000" xmlns="http://www.w3.org/2000/svg" xmlns:xlink="http://www.w3.org/1999/xlink"><g id="tight-bounds" transform="matrix(1,0,0,1,0.23999485007914245,-0.17277666949399872)"><svg viewBox="0 0 395.52 209.345553338988" height="209.345553338988" width="395.52"><g><svg viewBox="0 0 395.52 209.345553338988" height="209.345553338988" width="395.52"><g transform="matrix(1,0,0,1,0,126.15242073396827)"><svg viewBox="0 0 395.52 83.19313260501973" height="83.19313260501973" width="395.52"><g><svg viewBox="0 0 395.52 83.19313260501973" height="83.19313260501973" width="395.52"><g><svg viewBox="0 0 395.52 47.35556123380179" height="47.35556123380179" width="395.52"><g transform="matrix(1,0,0,1,0,0)"><svg width="395.52" viewBox="1.9000000953674316 -32.349998474121094 273.92999267578125 32.79999923706055" height="47.35556123380179" data-palette-color="#636365"><path d="M16.1-32.3Q21.15-32.3 24.85-29.9L24.85-29.9 24.05-26.25 23.6-26.15Q20.25-28.95 15.9-28.95L15.9-28.95Q11.15-28.95 8.6-25.68 6.05-22.4 6.05-16.1L6.05-16.1Q6.05-9.75 8.6-6.4 11.15-3.05 15.8-3.05L15.8-3.05Q18-3.05 20.18-3.85 22.35-4.65 24.15-6.1L24.15-6.1 24.65-5.85 24.3-2.05Q19.95 0.35 15.45 0.35L15.45 0.35Q9 0.35 5.45-3.83 1.9-8 1.9-15.75L1.9-15.75Q1.9-23.7 5.6-28 9.3-32.3 16.1-32.3L16.1-32.3ZM43.7-12.95Q47-7.5 52-0.95L52-0.95 51.95-0.45Q50.15 0.25 48.25 0.45L48.25 0.45 47.7 0.1Q43.6-6.05 40.35-11.9L40.35-11.9 34.5-11.9 34.5-10 34.7 0 30.65 0 30.9-9.65 30.65-32.05 40.45-32.1Q45.15-32.1 47.72-29.73 50.3-27.35 50.3-22.95L50.3-22.95Q50.3-19.65 48.57-17.03 46.85-14.4 43.7-12.95L43.7-12.95ZM34.7-28.65L34.55-15.3 40.55-15.15Q46.15-16.75 46.15-22.6L46.15-22.6Q46.15-25.65 44.5-27.18 42.85-28.7 39.55-28.8L39.55-28.8 34.7-28.65ZM69.5-32.35Q76.09-32.35 79.62-28.3 83.15-24.25 83.15-16.65L83.15-16.65Q83.15-8.45 79.4-4.03 75.65 0.4 68.7 0.4L68.7 0.4Q62.2 0.4 58.67-3.8 55.15-8 55.15-15.75L55.15-15.75Q55.15-23.75 58.87-28.05 62.6-32.35 69.5-32.35L69.5-32.35ZM69.25-29.1Q59.25-29.1 59.25-16.2L59.25-16.2Q59.25-9.35 61.67-6.05 64.09-2.75 69-2.75L69-2.75Q79-2.75 79-15.9L79-15.9Q79-22.6 76.57-25.85 74.15-29.1 69.25-29.1L69.25-29.1ZM114.49-32.15L114.24-9.4 114.34 0 110.14 0 93.54-25.65 93.29-25.65 93.24-10.55 93.29 0 89.69 0 89.84-9.5 89.74-32.05 93.89-32.05 110.44-6.4 110.79-6.4 110.74-31.85 114.49-32.15ZM134.54-32.35Q141.14-32.35 144.67-28.3 148.19-24.25 148.19-16.65L148.19-16.65Q148.19-8.45 144.44-4.03 140.69 0.4 133.74 0.4L133.74 0.4Q127.24 0.4 123.72-3.8 120.19-8 120.19-15.75L120.19-15.75Q120.19-23.75 123.92-28.05 127.64-32.35 134.54-32.35L134.54-32.35ZM134.29-29.1Q124.29-29.1 124.29-16.2L124.29-16.2Q124.29-9.35 126.72-6.05 129.14-2.75 134.04-2.75L134.04-2.75Q144.04-2.75 144.04-15.9L144.04-15.9Q144.04-22.6 141.62-25.85 139.19-29.1 134.29-29.1L134.29-29.1ZM163.39-32.3Q166.84-32.3 170.54-30.8L170.54-30.8 169.89-26.95 169.19-26.75Q167.74-27.85 166.11-28.45 164.49-29.05 162.89-29.05L162.89-29.05Q161.04-29.05 159.66-28.3 158.29-27.55 157.56-26.35 156.84-25.15 156.84-23.85L156.84-23.85Q156.84-22.5 157.66-21.48 158.49-20.45 159.74-19.7 160.99-18.95 163.14-17.9L163.14-17.9Q165.84-16.65 167.49-15.58 169.14-14.5 170.31-12.85 171.49-11.2 171.49-8.85L171.49-8.85Q171.49-6.35 170.14-4.25 168.79-2.15 166.34-0.9 163.89 0.35 160.74 0.35L160.74 0.35Q158.64 0.35 156.36-0.23 154.09-0.8 152.14-1.9L152.14-1.9 152.64-6 153.19-6.25Q154.94-4.55 157.06-3.73 159.19-2.9 161.14-2.9L161.14-2.9Q163.04-2.9 164.51-3.65 165.99-4.4 166.76-5.65 167.54-6.9 167.54-8.3L167.54-8.3Q167.54-10.4 165.94-11.68 164.34-12.95 161.09-14.45L161.09-14.45Q158.44-15.75 156.84-16.78 155.24-17.8 154.09-19.43 152.94-21.05 152.94-23.4L152.94-23.4Q152.94-25.85 154.26-27.9 155.59-29.95 157.96-31.13 160.34-32.3 163.39-32.3L163.39-32.3ZM215.13-32.05L218.28 0 214.68 0 213.93-9.75 212.23-25.7 211.88-25.7 202.98-3.7 199.68-3.7 191.23-25.7 190.83-25.7 189.13-10.05 188.28 0 184.88 0 188.23-32.05 192.78-32.05 194.43-27.15 201.38-8.9 201.68-8.9 208.98-27.45 210.63-32.05 215.13-32.05ZM244.03-3.5L244.28-3.1 243.98 0 225.98 0 226.23-9.65 225.98-32.05 244.03-32.05 244.23-31.65 243.93-28.55 236.38-28.7 230.03-28.6 229.93-18.1 235.93-18 241.23-18.15 241.53-17.8 241.18-14.7 235.58-14.8 229.88-14.75 229.83-10 229.98-3.35 236.33-3.3 244.03-3.5ZM261.68-32.25Q268.53-32.25 272.18-28.35 275.83-24.45 275.83-17.15L275.83-17.15Q275.83-8.7 271.88-4.2 267.93 0.3 260.53 0.3L260.53 0.3Q258.48 0.3 255.55 0.23 252.63 0.15 250.13 0L250.13 0 250.08 0 250.33-9.65 250.08-32.05 250.13-32.05 261.68-32.25ZM261.18-3.05Q266.28-3.05 269-6.38 271.73-9.7 271.73-16.3L271.73-16.3Q271.73-28.9 261.38-28.9L261.38-28.9Q258.23-28.9 254.13-28.7L254.13-28.7 253.93-10 254.08-3.35Q255.63-3.2 257.8-3.13 259.98-3.05 261.18-3.05L261.18-3.05Z" opacity="1" transform="matrix(1,0,0,1,0,0)" fill="#000000" class="undefined-text-0" data-fill-palette-color="primary" id="text-0"></path></svg></g></svg></g><g transform="matrix(1,0,0,1,0,58.53507270763278)"><svg viewBox="0 0 395.52 24.65805989738695" height="24.65805989738695" width="395.52"><g transform="matrix(1,0,0,1,0,0)"><svg width="395.52" viewBox="0.800000011920929 -38.349998474121094 838.02001953125 52.25" height="24.65805989738695" data-palette-color="#636365"><path d="M11.2 0.7L11.2 0.7Q0.8 0.7 0.8-6.5L0.8-6.5Q0.8-7.5 1-8.65L1-8.65 2.05-14.85Q2.85-19.65 6.43-22.2 10-24.75 15.5-24.8L15.5-24.8Q26.15-24.8 26.15-17.4L26.15-17.4Q26.15-15.8 25.78-14.53 25.4-13.25 25-12.8L25-12.8 24.6-12.3 16.1-12.3Q17.35-13.4 17.35-14.9L17.35-14.9Q17.35-17.6 14.65-17.6L14.65-17.6Q13.05-17.6 11.9-16.65 10.75-15.7 10.4-13.75L10.4-13.75 9.75-10.1Q9.65-9.6 9.65-9.15L9.65-9.15Q9.65-6.5 12.95-6.5L12.95-6.5Q14.05-6.5 14.93-7.2 15.8-7.9 15.95-8.75L15.95-8.75 24.25-8.65Q22.6 0.7 11.2 0.7ZM52.05-7.7L52.05-7.7Q52.05-6.4 53.37-6.4 54.7-6.4 55.6-6.9L55.6-6.9 55.35-1.25Q52.95 0.7 49.95 0.7L49.95 0.7Q44.45 0.7 43.85-3.3L43.85-3.3Q41.35 0.7 36.5 0.7L36.5 0.7Q28.3 0.7 28.3-6.35L28.3-6.35Q28.3-7.55 28.55-9L28.55-9 29.6-14.85Q30.4-19.35 33.27-22.03 36.15-24.7 40.77-24.7 45.4-24.7 47.05-22.55L47.05-22.55 47.3-24.05 54.9-24.05 52.1-8.3Q52.05-8 52.05-7.7ZM37.9-13.85L37.25-10.1Q37.15-9.65 37.15-8.85 37.15-8.05 37.9-7.28 38.65-6.5 40.42-6.5 42.2-6.5 43.5-7.9L43.5-7.9 45-16.3Q44.45-17.55 42.4-17.55L42.4-17.55Q38.55-17.55 37.9-13.85L37.9-13.85ZM68-7.7L68-7.7Q68-6.4 69.32-6.4 70.64-6.4 71.55-6.9L71.55-6.9 71.3-1.25Q68.89 0.7 65.89 0.7L65.89 0.7Q61.34 0.7 59.99-1.4L59.99-1.4Q59.14-2.75 59.14-4.35 59.14-5.95 59.34-7.15L59.34-7.15 64.8-37.95 73.3-37.95 68.05-8.3Q68-8 68-7.7ZM84.74 0.7L84.74 0.7Q74.34 0.7 74.34-6.5L74.34-6.5Q74.34-7.5 74.54-8.65L74.54-8.65 75.59-14.85Q76.44-19.65 80.02-22.23 83.59-24.8 89.49-24.8L89.49-24.8Q99.54-24.8 99.54-17.2L99.54-17.2Q99.54-16.1 99.34-14.8L99.34-14.8 98.74-11.25 83.49-11.25 83.29-10.1Q83.19-9.5 83.19-9L83.19-9Q83.19-6.25 86.44-6.25L86.44-6.25Q87.64-6.25 88.49-7 89.34-7.75 89.49-8.75L89.49-8.75 97.79-8.65Q96.14 0.7 84.74 0.7ZM83.99-14.3L90.74-14.3Q90.94-15.15 90.94-15.88 90.94-16.6 90.29-17.35 89.64-18.1 88.22-18.1 86.79-18.1 85.62-17.15 84.44-16.2 83.99-14.3L83.99-14.3ZM118.34-15.35L118.34-15.35Q118.34-17.5 116.27-17.5 114.19-17.5 112.84-15.95L112.84-15.95 110.04 0 101.54 0 105.79-24.05 113.69-24.05 113.14-21.1Q116.09-24.75 120.59-24.75 125.09-24.75 126.44-22.55L126.44-22.55Q127.29-21.15 127.29-19.35 127.29-17.55 127.04-16L127.04-16 125.69-8.3Q125.64-8 125.64-7.75L125.64-7.75Q125.64-6.4 127.14-6.4L127.14-6.4Q128.29-6.4 129.19-6.9L129.19-6.9 128.94-1.25Q126.59 0.7 123.59 0.7L123.59 0.7Q116.79 0.7 116.79-5L116.79-5Q116.79-6 116.99-7.15L116.99-7.15 118.19-13.8Q118.34-14.7 118.34-15.35ZM155.59-7.7L155.59-7.7Q155.59-6.4 156.91-6.4 158.24-6.4 159.14-6.9L159.14-6.9 158.89-1.25Q156.49 0.7 153.49 0.7L153.49 0.7Q147.99 0.7 147.39-3.3L147.39-3.3Q144.89 0.7 140.04 0.7L140.04 0.7Q131.84 0.7 131.84-6.35L131.84-6.35Q131.84-7.55 132.09-9L132.09-9 133.14-14.85Q133.94-19.35 136.81-22.03 139.69-24.7 144.79-24.7L144.79-24.7Q147.94-24.7 149.79-23.35L149.79-23.35 152.34-37.95 160.89-37.95 155.64-8.3Q155.59-8 155.59-7.7ZM141.44-13.85L140.79-10.1Q140.69-9.65 140.69-8.85 140.69-8.05 141.44-7.28 142.19-6.5 143.96-6.5 145.74-6.5 147.04-7.9L147.04-7.9 148.54-16.3Q147.99-17.55 145.94-17.55L145.94-17.55Q142.09-17.55 141.44-13.85L141.44-13.85ZM186.44-7.7L186.44-7.7Q186.44-6.4 187.76-6.4 189.09-6.4 189.99-6.9L189.99-6.9 189.74-1.25Q187.34 0.7 184.34 0.7L184.34 0.7Q178.84 0.7 178.24-3.3L178.24-3.3Q175.74 0.7 170.89 0.7L170.89 0.7Q162.69 0.7 162.69-6.35L162.69-6.35Q162.69-7.55 162.94-9L162.94-9 163.99-14.85Q164.79-19.35 167.66-22.03 170.54-24.7 175.16-24.7 179.79-24.7 181.44-22.55L181.44-22.55 181.69-24.05 189.29-24.05 186.49-8.3Q186.44-8 186.44-7.7ZM172.29-13.85L171.64-10.1Q171.54-9.65 171.54-8.85 171.54-8.05 172.29-7.28 173.04-6.5 174.81-6.5 176.59-6.5 177.89-7.9L177.89-7.9 179.39-16.3Q178.84-17.55 176.79-17.55L176.79-17.55Q172.94-17.55 172.29-13.85L172.29-13.85ZM217.33-18.95L217.33-18.95Q217.33-17.25 216.76-15.65 216.18-14.05 215.63-13.3L215.63-13.3 215.08-12.6 207.53-12.6Q208.78-13.75 208.78-15.45L208.78-15.45Q208.78-16.35 208.21-16.93 207.63-17.5 206.63-17.5L206.63-17.5Q204.93-17.5 203.68-15.8L203.68-15.8 200.88 0 192.38 0 196.63-24.05 204.53-24.05 203.93-20.7Q206.78-24.75 210.83-24.75L210.83-24.75Q214.08-24.75 215.71-23.2 217.33-21.65 217.33-18.95ZM217.93-2.9L217.93-2.9Q217.93-6.1 219.36-7.58 220.78-9.05 223.83-9.05L223.83-9.05Q228.33-9.05 228.33-4.6L228.33-4.6Q228.33 10.1 214.43 10.1L214.43 10.1 215.08 6.5Q217.73 6.5 220.33 4L220.33 4Q221.78 2.6 222.08 0.7L222.08 0.7Q217.93 0.7 217.93-2.9ZM286.93-6.4L286.93-6.4Q288.08-6.4 288.98-6.9L288.98-6.9 288.73-1.25Q286.38 0.7 283.38 0.7L283.38 0.7Q276.58 0.7 276.58-5L276.58-5Q276.58-6 276.78-7.15L276.78-7.15 277.83-13.3Q277.98-14.2 277.98-15.1L277.98-15.1Q277.98-17.5 275.35-17.5 272.73-17.5 271.23-15.45L271.23-15.45 268.53 0 260.03 0 262.38-13.3Q262.53-14.2 262.53-15.1L262.53-15.1Q262.53-17.5 259.83-17.5L259.83-17.5Q257.68-17.5 256.13-15.85L256.13-15.85 253.33 0 244.83 0 249.08-24.05 256.98-24.05 256.43-21.05Q259.43-24.75 264.03-24.75L264.03-24.75Q270.53-24.75 271.43-20.45L271.43-20.45Q274.43-24.75 279.45-24.75 284.48-24.75 285.98-22.5L285.98-22.5Q286.98-20.95 286.98-19.1 286.98-17.25 286.73-15.75L286.73-15.75 285.48-8.3Q285.43-8 285.43-7.75L285.43-7.75Q285.43-6.4 286.93-6.4ZM302.02 0.7L302.02 0.7Q291.62 0.7 291.62-6.5L291.62-6.5Q291.62-7.5 291.82-8.65L291.82-8.65 292.87-14.85Q293.72-19.65 297.3-22.23 300.87-24.8 306.77-24.8L306.77-24.8Q316.82-24.8 316.82-17.2L316.82-17.2Q316.82-16.1 316.62-14.8L316.62-14.8 316.02-11.25 300.77-11.25 300.57-10.1Q300.47-9.5 300.47-9L300.47-9Q300.47-6.25 303.72-6.25L303.72-6.25Q304.92-6.25 305.77-7 306.62-7.75 306.77-8.75L306.77-8.75 315.07-8.65Q313.42 0.7 302.02 0.7ZM301.27-14.3L308.02-14.3Q308.22-15.15 308.22-15.88 308.22-16.6 307.57-17.35 306.92-18.1 305.5-18.1 304.07-18.1 302.9-17.15 301.72-16.2 301.27-14.3L301.27-14.3ZM342.97-7.7L342.97-7.7Q342.97-6.4 344.3-6.4 345.62-6.4 346.52-6.9L346.52-6.9 346.27-1.25Q343.87 0.7 340.87 0.7L340.87 0.7Q335.37 0.7 334.77-3.3L334.77-3.3Q332.27 0.7 327.42 0.7L327.42 0.7Q319.22 0.7 319.22-6.35L319.22-6.35Q319.22-7.55 319.47-9L319.47-9 320.52-14.85Q321.32-19.35 324.2-22.03 327.07-24.7 332.17-24.7L332.17-24.7Q335.32-24.7 337.17-23.35L337.17-23.35 339.72-37.95 348.27-37.95 343.02-8.3Q342.97-8 342.97-7.7ZM328.82-13.85L328.17-10.1Q328.07-9.65 328.07-8.85 328.07-8.05 328.82-7.28 329.57-6.5 331.35-6.5 333.12-6.5 334.42-7.9L334.42-7.9 335.92-16.3Q335.37-17.55 333.32-17.55L333.32-17.55Q329.47-17.55 328.82-13.85L328.82-13.85ZM361.12-6.4L361.12-6.4Q362.27-6.4 363.17-6.9L363.17-6.9 362.92-1.25Q360.57 0.7 357.57 0.7L357.57 0.7Q353.02 0.7 351.67-1.4L351.67-1.4Q350.77-2.8 350.77-4.38 350.77-5.95 350.97-7.15L350.97-7.15 353.97-24.05 362.47-24.05 359.67-8.3Q359.62-8 359.62-7.75L359.62-7.75Q359.62-6.4 361.12-6.4ZM354.97-32.2L354.97-32.2Q354.97-35.4 356.39-36.88 357.82-38.35 360.82-38.35L360.82-38.35Q365.02-38.35 365.02-34.65L365.02-34.65Q365.02-31.5 363.59-30.05 362.17-28.6 359.12-28.6L359.12-28.6Q354.97-28.6 354.97-32.2ZM376.32 0.7L376.32 0.7Q365.92 0.7 365.92-6.5L365.92-6.5Q365.92-7.5 366.12-8.65L366.12-8.65 367.17-14.85Q367.97-19.65 371.54-22.2 375.12-24.75 380.62-24.8L380.62-24.8Q391.27-24.8 391.27-17.4L391.27-17.4Q391.27-15.8 390.89-14.53 390.52-13.25 390.12-12.8L390.12-12.8 389.72-12.3 381.22-12.3Q382.47-13.4 382.47-14.9L382.47-14.9Q382.47-17.6 379.77-17.6L379.77-17.6Q378.17-17.6 377.02-16.65 375.87-15.7 375.52-13.75L375.52-13.75 374.87-10.1Q374.77-9.6 374.77-9.15L374.77-9.15Q374.77-6.5 378.07-6.5L378.07-6.5Q379.17-6.5 380.04-7.2 380.92-7.9 381.07-8.75L381.07-8.75 389.37-8.65Q387.72 0.7 376.32 0.7ZM404.26-6.4L404.26-6.4Q405.41-6.4 406.31-6.9L406.31-6.9 406.06-1.25Q403.71 0.7 400.71 0.7L400.71 0.7Q396.16 0.7 394.81-1.4L394.81-1.4Q393.91-2.8 393.91-4.38 393.91-5.95 394.11-7.15L394.11-7.15 397.11-24.05 405.61-24.05 402.81-8.3Q402.76-8 402.76-7.75L402.76-7.75Q402.76-6.4 404.26-6.4ZM398.11-32.2L398.11-32.2Q398.11-35.4 399.54-36.88 400.96-38.35 403.96-38.35L403.96-38.35Q408.16-38.35 408.16-34.65L408.16-34.65Q408.16-31.5 406.74-30.05 405.31-28.6 402.26-28.6L402.26-28.6Q398.11-28.6 398.11-32.2ZM425.46-15.35L425.46-15.35Q425.46-17.5 423.39-17.5 421.31-17.5 419.96-15.95L419.96-15.95 417.16 0 408.66 0 412.91-24.05 420.81-24.05 420.26-21.1Q423.21-24.75 427.71-24.75 432.21-24.75 433.56-22.55L433.56-22.55Q434.41-21.15 434.41-19.35 434.41-17.55 434.16-16L434.16-16 432.81-8.3Q432.76-8 432.76-7.75L432.76-7.75Q432.76-6.4 434.26-6.4L434.26-6.4Q435.41-6.4 436.31-6.9L436.31-6.9 436.06-1.25Q433.71 0.7 430.71 0.7L430.71 0.7Q423.91 0.7 423.91-5L423.91-5Q423.91-6 424.11-7.15L424.11-7.15 425.31-13.8Q425.46-14.7 425.46-15.35ZM449.36 0.7L449.36 0.7Q438.96 0.7 438.96-6.5L438.96-6.5Q438.96-7.5 439.16-8.65L439.16-8.65 440.21-14.85Q441.06-19.65 444.63-22.23 448.21-24.8 454.11-24.8L454.11-24.8Q464.16-24.8 464.16-17.2L464.16-17.2Q464.16-16.1 463.96-14.8L463.96-14.8 463.36-11.25 448.11-11.25 447.91-10.1Q447.81-9.5 447.81-9L447.81-9Q447.81-6.25 451.06-6.25L451.06-6.25Q452.26-6.25 453.11-7 453.96-7.75 454.11-8.75L454.11-8.75 462.41-8.65Q460.76 0.7 449.36 0.7ZM448.61-14.3L455.36-14.3Q455.56-15.15 455.56-15.88 455.56-16.6 454.91-17.35 454.26-18.1 452.83-18.1 451.41-18.1 450.23-17.15 449.06-16.2 448.61-14.3L448.61-14.3ZM466.01-2.9L466.01-2.9Q466.01-6.1 467.43-7.58 468.86-9.05 471.91-9.05L471.91-9.05Q476.41-9.05 476.41-4.6L476.41-4.6Q476.41 10.1 462.51 10.1L462.51 10.1 463.16 6.5Q465.81 6.5 468.41 4L468.41 4Q469.86 2.6 470.16 0.7L470.16 0.7Q466.01 0.7 466.01-2.9ZM517.05-7.7L517.05-7.7Q517.05-6.4 518.38-6.4 519.7-6.4 520.6-6.9L520.6-6.9 520.35-1.25Q517.95 0.7 514.95 0.7L514.95 0.7Q509.45 0.7 508.85-3.3L508.85-3.3Q506.35 0.7 501.5 0.7L501.5 0.7Q493.3 0.7 493.3-6.35L493.3-6.35Q493.3-7.55 493.55-9L493.55-9 494.6-14.85Q495.4-19.35 498.28-22.03 501.15-24.7 505.78-24.7 510.4-24.7 512.05-22.55L512.05-22.55 512.3-24.05 519.9-24.05 517.1-8.3Q517.05-8 517.05-7.7ZM502.9-13.85L502.25-10.1Q502.15-9.65 502.15-8.85 502.15-8.05 502.9-7.28 503.65-6.5 505.43-6.5 507.2-6.5 508.5-7.9L508.5-7.9 510-16.3Q509.45-17.55 507.4-17.55L507.4-17.55Q503.55-17.55 502.9-13.85L502.9-13.85ZM541.05-24.7L541.05-24.7Q546.15-24.7 548.1-22L548.1-22Q549.5-20.15 549.5-17.3L549.5-17.3Q549.5-16.15 549.25-14.85L549.25-14.85 548.25-9Q547.4-4.25 544.6-1.78 541.8 0.7 537.6 0.7 533.4 0.7 531.75-1.55L531.75-1.55 529.05 13.9 520.55 13.9 527.25-24.05 534.95-24.05 534.7-22.7Q537.05-24.7 541.05-24.7ZM535.85-6.5L535.85-6.5Q537.25-6.5 538.45-7.4 539.65-8.3 539.95-10.1L539.95-10.1 540.6-13.85Q540.7-14.35 540.7-15.1 540.7-15.85 540.05-16.7 539.4-17.55 537.8-17.55L537.8-17.55Q535.2-17.55 534.4-16.3L534.4-16.3 532.9-7.9Q533.6-6.5 535.85-6.5ZM569.84-24.7L569.84-24.7Q574.94-24.7 576.89-22L576.89-22Q578.29-20.15 578.29-17.3L578.29-17.3Q578.29-16.15 578.04-14.85L578.04-14.85 577.04-9Q576.19-4.25 573.39-1.78 570.59 0.7 566.39 0.7 562.19 0.7 560.54-1.55L560.54-1.55 557.84 13.9 549.34 13.9 556.04-24.05 563.74-24.05 563.49-22.7Q565.84-24.7 569.84-24.7ZM564.64-6.5L564.64-6.5Q566.04-6.5 567.24-7.4 568.44-8.3 568.74-10.1L568.74-10.1 569.39-13.85Q569.49-14.35 569.49-15.1 569.49-15.85 568.84-16.7 568.19-17.55 566.59-17.55L566.59-17.55Q563.99-17.55 563.19-16.3L563.19-16.3 561.69-7.9Q562.39-6.5 564.64-6.5ZM596.24-24.75L596.24-24.75Q601.64-24.75 604.39-22.4L604.39-22.4Q606.54-20.55 606.54-17.25L606.54-17.25Q606.54-16.15 606.29-14.85L606.29-14.85 605.24-9Q604.29-3.7 600.82-1.5 597.34 0.7 591.54 0.7 585.74 0.7 583.04-1.5L583.04-1.5Q581.04-3.15 581.04-6.45L581.04-6.45Q581.04-7.6 581.29-9L581.29-9 582.34-14.85Q584.09-24.75 596.24-24.75ZM596.94-10.1L597.59-13.85Q597.69-14.35 597.69-15.13 597.69-15.9 597.04-16.85 596.39-17.8 594.77-17.8 593.14-17.8 592.04-16.73 590.94-15.65 590.64-13.85L590.64-13.85 589.99-10.1Q589.89-9.6 589.89-8.83 589.89-8.05 590.54-7.15 591.19-6.25 592.82-6.25 594.44-6.25 595.54-7.38 596.64-8.5 596.94-10.1L596.94-10.1ZM620.04-6.4L620.04-6.4Q621.19-6.4 622.09-6.9L622.09-6.9 621.84-1.25Q619.49 0.7 616.49 0.7L616.49 0.7Q611.94 0.7 610.59-1.4L610.59-1.4Q609.69-2.8 609.69-4.38 609.69-5.95 609.89-7.15L609.89-7.15 612.89-24.05 621.39-24.05 618.59-8.3Q618.54-8 618.54-7.75L618.54-7.75Q618.54-6.4 620.04-6.4ZM613.89-32.2L613.89-32.2Q613.89-35.4 615.31-36.88 616.74-38.35 619.74-38.35L619.74-38.35Q623.94-38.35 623.94-34.65L623.94-34.65Q623.94-31.5 622.51-30.05 621.09-28.6 618.04-28.6L618.04-28.6Q613.89-28.6 613.89-32.2ZM641.24-15.35L641.24-15.35Q641.24-17.5 639.16-17.5 637.09-17.5 635.74-15.95L635.74-15.95 632.94 0 624.44 0 628.69-24.05 636.59-24.05 636.04-21.1Q638.99-24.75 643.49-24.75 647.99-24.75 649.34-22.55L649.34-22.55Q650.19-21.15 650.19-19.35 650.19-17.55 649.94-16L649.94-16 648.59-8.3Q648.54-8 648.54-7.75L648.54-7.75Q648.54-6.4 650.04-6.4L650.04-6.4Q651.19-6.4 652.09-6.9L652.09-6.9 651.84-1.25Q649.49 0.7 646.49 0.7L646.49 0.7Q639.69 0.7 639.69-5L639.69-5Q639.69-6 639.89-7.15L639.89-7.15 641.09-13.8Q641.24-14.7 641.24-15.35ZM665.73 0.7L665.73 0.7Q659.93 0.7 657.38-1.9L657.38-1.9Q655.48-3.8 655.48-7L655.48-7Q655.48-8.05 655.68-9.25L655.68-9.25 659.08-28.6 668.23-32.4 666.78-24.05 680.58-24.05 679.33-17 665.53-17 664.53-11.35Q664.33-10.4 664.33-9.65L664.33-9.65Q664.33-6.5 667.33-6.5L667.33-6.5Q668.93-6.5 670.01-7.85 671.08-9.2 671.48-11.45L671.48-11.45 679.78-11.45Q677.68 0.7 665.73 0.7ZM723.88-6.4L723.88-6.4Q725.03-6.4 725.93-6.9L725.93-6.9 725.68-1.25Q723.33 0.7 720.33 0.7L720.33 0.7Q713.53 0.7 713.53-5L713.53-5Q713.53-6 713.73-7.15L713.73-7.15 714.78-13.3Q714.93-14.2 714.93-15.1L714.93-15.1Q714.93-17.5 712.31-17.5 709.68-17.5 708.18-15.45L708.18-15.45 705.48 0 696.98 0 699.33-13.3Q699.48-14.2 699.48-15.1L699.48-15.1Q699.48-17.5 696.78-17.5L696.78-17.5Q694.63-17.5 693.08-15.85L693.08-15.85 690.28 0 681.78 0 686.03-24.05 693.93-24.05 693.38-21.05Q696.38-24.75 700.98-24.75L700.98-24.75Q707.48-24.75 708.38-20.45L708.38-20.45Q711.38-24.75 716.41-24.75 721.43-24.75 722.93-22.5L722.93-22.5Q723.93-20.95 723.93-19.1 723.93-17.25 723.68-15.75L723.68-15.75 722.43-8.3Q722.38-8 722.38-7.75L722.38-7.75Q722.38-6.4 723.88-6.4ZM738.98 0.7L738.98 0.7Q728.58 0.7 728.58-6.5L728.58-6.5Q728.58-7.5 728.78-8.65L728.78-8.65 729.83-14.85Q730.68-19.65 734.25-22.23 737.83-24.8 743.73-24.8L743.73-24.8Q753.78-24.8 753.78-17.2L753.78-17.2Q753.78-16.1 753.58-14.8L753.58-14.8 752.98-11.25 737.73-11.25 737.53-10.1Q737.43-9.5 737.43-9L737.43-9Q737.43-6.25 740.68-6.25L740.68-6.25Q741.88-6.25 742.73-7 743.58-7.75 743.73-8.75L743.73-8.75 752.03-8.65Q750.38 0.7 738.98 0.7ZM738.23-14.3L744.98-14.3Q745.18-15.15 745.18-15.88 745.18-16.6 744.53-17.35 743.88-18.1 742.45-18.1 741.03-18.1 739.85-17.15 738.68-16.2 738.23-14.3L738.23-14.3ZM772.58-15.35L772.58-15.35Q772.58-17.5 770.5-17.5 768.43-17.5 767.08-15.95L767.08-15.95 764.28 0 755.78 0 760.03-24.05 767.93-24.05 767.38-21.1Q770.33-24.75 774.83-24.75 779.33-24.75 780.68-22.55L780.68-22.55Q781.53-21.15 781.53-19.35 781.53-17.55 781.28-16L781.28-16 779.93-8.3Q779.88-8 779.88-7.75L779.88-7.75Q779.88-6.4 781.38-6.4L781.38-6.4Q782.53-6.4 783.43-6.9L783.43-6.9 783.18-1.25Q780.83 0.7 777.83 0.7L777.83 0.7Q771.03 0.7 771.03-5L771.03-5Q771.03-6 771.23-7.15L771.23-7.15 772.43-13.8Q772.58-14.7 772.58-15.35ZM797.07 0.7L797.07 0.7Q791.27 0.7 788.72-1.9L788.72-1.9Q786.82-3.8 786.82-7L786.82-7Q786.82-8.05 787.02-9.25L787.02-9.25 790.42-28.6 799.57-32.4 798.12-24.05 811.92-24.05 810.67-17 796.87-17 795.87-11.35Q795.67-10.4 795.67-9.65L795.67-9.65Q795.67-6.5 798.67-6.5L798.67-6.5Q800.27-6.5 801.35-7.85 802.42-9.2 802.82-11.45L802.82-11.45 811.12-11.45Q809.02 0.7 797.07 0.7ZM838.82-18.85L838.82-18.85Q838.82-17.2 837.82-15.8L837.82-15.8 829.62-15.8Q830.02-16.1 830.02-16.8 830.02-17.5 829.22-17.93 828.42-18.35 827.17-18.35L827.17-18.35Q823.42-18.35 823.42-16.05L823.42-16.05Q823.42-15.15 824.82-14.75 826.22-14.35 828.22-14.1 830.22-13.85 832.22-13.38 834.22-12.9 835.62-11.5 837.02-10.1 837.02-7.75L837.02-7.75Q837.02-3.6 833.7-1.45 830.37 0.7 824.02 0.7 817.67 0.7 815.12-1.35L815.12-1.35Q813.12-2.95 813.12-5.75L813.12-5.75Q813.12-6.55 813.27-7.4L813.27-7.4 821.62-7.5Q821.52-6.8 822.45-6.28 823.37-5.75 825.17-5.75 826.97-5.75 827.77-6.13 828.57-6.5 828.57-7.55L828.57-7.55Q828.57-8.25 827.17-8.53 825.77-8.8 823.75-9 821.72-9.2 819.7-9.65 817.67-10.1 816.27-11.55 814.87-13 814.87-15.35L814.87-15.35Q814.87-19.9 818.4-22.35 821.92-24.8 828.57-24.8L828.57-24.8Q838.82-24.8 838.82-18.85Z" opacity="1" transform="matrix(1,0,0,1,0,0)" fill="#000000" class="undefined-text-1" data-fill-palette-color="secondary" id="text-1"></path></svg></g></svg></g></svg></g></svg></g><g transform="matrix(1,0,0,1,139.74103898420253,0)"><svg viewBox="0 0 116.03792203159492 114.97290926013729" height="114.97290926013729" width="116.03792203159492"><g><svg xmlns="http://www.w3.org/2000/svg" xmlns:xlink="http://www.w3.org/1999/xlink" version="1.1" x="8" y="0" viewBox="6.607999801635742 0 87.00999450683594 100" enable-background="new 0 0 100 100" xml:space="preserve" height="114.97290926013729" width="100.03792203159492" class="icon-icon-0" data-fill-palette-color="accent" id="icon-0"><path d="M50.171 6.288c11.637 8.013 30.191 11.898 38.101 13.26 0.301 2.772 0.455 5.527 0.455 8.223 0 27.634-14.728 52.93-38.612 66.642C26.229 80.697 11.5 55.402 11.5 27.771c0-2.669 0.154-5.403 0.455-8.17C20.031 18.318 38.946 14.568 50.171 6.288M50.039 0C38.216 11.699 7.588 15.281 7.588 15.281c-0.628 4.078-0.98 8.24-0.98 12.49 0 31.327 17.64 58.512 43.506 72.229 25.87-13.718 43.504-40.902 43.504-72.229 0-4.25-0.346-8.412-0.973-12.49C92.646 15.281 62.822 11.34 50.039 0L50.039 0z" fill="#000000" data-fill-palette-color="accent"></path><path d="M20.738 26.015c-0.435 2.824-0.677 5.702-0.677 8.638 0 21.633 12.19 40.407 30.053 49.882 17.864-9.476 30.052-28.249 30.052-49.882 0-2.936-0.247-5.814-0.674-8.638 0 0-20.602-2.719-29.432-10.551C41.892 23.542 20.738 26.015 20.738 26.015z" fill="#000000" data-fill-palette-color="accent"></path></svg></g></svg></g><g><rect width="139.74103898420253" height="4.2705733830034385" y="109.70233587713385" x="255.77896101579745" fill="#000000" data-fill-palette-color="accent"></rect><rect width="139.74103898420253" height="4.2705733830034385" y="109.70233587713385" x="0" fill="#000000" data-fill-palette-color="accent"></rect><rect width="139.74103898420253" height="4.2705733830034385" y="101.16118911112697" x="255.77896101579745" fill="#000000" data-fill-palette-color="accent"></rect><rect width="139.74103898420253" height="4.2705733830034385" y="101.16118911112697" x="0" fill="#000000" data-fill-palette-color="accent"></rect></g></svg></g><defs></defs></svg><rect width="395.52" height="209.345553338988" fill="none" stroke="none" visibility="hidden"></rect></g></svg></g></svg>